<?xml version="1.0" encoding="UTF-8"?>
<svg width="36px" height="42px" viewBox="0 0 36 42" version="1.1" xmlns="http://www.w3.org/2000/svg" xmlns:xlink="http://www.w3.org/1999/xlink">
    <title>重点标</title>
    <g id="按路线巡检" stroke="none" stroke-width="1" fill="none" fill-rule="evenodd">
        <g id="按路线巡检-添加巡检项完成" transform="translate(-12.000000, -871.000000)">
            <g id="重点标" transform="translate(12.000000, 871.000000)">
                <polygon id="矩形" fill="#F24956" points="0 0 36 0 36 31 17.8656077 41 0 31"></polygon>
                <path d="M17.5712434,25.5942435 L12.0150025,28.2311953 C11.5160574,28.467991 10.9196216,28.255477 10.6828258,27.7565318 C10.6005038,27.5830736 10.5698579,27.3895831 10.5945493,27.1991756 L11.3854666,21.1000136 C11.4240904,20.8021662 11.326798,20.5027311 11.1204804,20.28447 L6.89561739,15.8150338 C6.51622874,15.4136827 6.53403281,14.7807681 6.9353839,14.4013795 C7.07491361,14.269485 7.24946387,14.1805472 7.43818224,14.1451909 L13.4832369,13.0126533 C13.778442,12.9573468 14.0331567,12.7722857 14.1769797,12.5086196 L17.1221116,7.10940438 C17.3865817,6.62456003 17.994021,6.44591133 18.4788653,6.71038136 C18.6474215,6.80232437 18.7859454,6.94084824 18.8778884,7.10940438 L21.8230203,12.5086196 C21.9668433,12.7722857 22.221558,12.9573468 22.5167631,13.0126533 L28.5618178,14.1451909 C29.1046579,14.2468917 29.462272,14.7693954 29.3605712,15.3122355 C29.3252149,15.5009539 29.2362771,15.6755041 29.1043826,15.8150338 L24.8795196,20.28447 C24.673202,20.5027311 24.5759096,20.8021662 24.6145334,21.1000136 L25.4054507,27.1991756 C25.4764743,27.7468745 25.0900527,28.2484482 24.5423538,28.3194718 C24.3519462,28.3441632 24.1584558,28.3135173 23.9849975,28.2311953 L18.4287566,25.5942435 C18.1574223,25.4654702 17.8425777,25.4654702 17.5712434,25.5942435 Z" id="星形" fill="#FFFFFF"></path>
            </g>
        </g>
    </g>
</svg>