<?xml version="1.0" encoding="UTF-8"?>
<svg width="120px" height="120px" viewBox="0 0 120 120" version="1.1" xmlns="http://www.w3.org/2000/svg" xmlns:xlink="http://www.w3.org/1999/xlink">
    <title>编组 5</title>
    <g id="仅指定巡检项" stroke="none" stroke-width="1" fill="none" fill-rule="evenodd">
        <g id="仅指定巡检项-扫点位" transform="translate(-315.000000, -349.000000)">
            <g id="编组-5" transform="translate(315.000000, 349.000000)">
                <rect id="矩形" fill="#DADFE6" x="0" y="0" width="120" height="120" rx="12"></rect>
                <rect id="矩形" fill="#F5F7FA" x="15" y="17" width="30" height="4" rx="2"></rect>
                <rect id="矩形备份" fill="#F5F7FA" x="15" y="30" width="14" height="4" rx="2"></rect>
                <g id="编组-4" transform="translate(38.737949, 31.286763)" stroke="#F5F7FA" stroke-width="4">
                    <path d="M38.3179167,21.564428 C38.5582592,21.4764978 38.8321459,21.4802552 39.0826095,21.5965418 C39.2968861,21.6960274 39.4690216,21.8681629 39.5685072,22.0824395 L39.5685072,22.0824395 L59.7891884,65.6346761 C59.9054751,65.8851397 59.9092325,66.1590265 59.8213023,66.399369 C59.7333721,66.6397115 59.5537544,66.8465097 59.3032908,66.9627964 C59.0621311,67.0747634 58.78631,67.0860804 58.5367883,66.9942462 L58.5367883,66.9942462 L38.6614982,59.6793272 L18.7862081,66.9942462 C18.5270598,67.0896234 18.2537859,67.0709306 18.0214548,66.9636065 C17.7891236,66.8562823 17.5977352,66.6603269 17.5023581,66.4011786 C17.4105239,66.151657 17.4218409,65.8758358 17.5338079,65.6346761 L17.5338079,65.6346761 L37.7544892,22.0824395 C37.8707759,21.8319759 38.0775742,21.6523581 38.3179167,21.564428 Z" id="三角形" fill="#DADFE6" transform="translate(38.661498, 43.379544) rotate(-30.000000) translate(-38.661498, -43.379544) "></path>
                    <line x1="53.1410671" y1="56.5447317" x2="53.1410671" y2="80.3730535" id="路径-2" stroke-linecap="round" transform="translate(53.141067, 68.458893) rotate(-30.000000) translate(-53.141067, -68.458893) "></line>
                    <line x1="19.4339866" y1="4.53153975" x2="19.4339866" y2="16.4048385" id="路径-2备份" stroke-linecap="round" transform="translate(19.433987, 10.076517) rotate(-30.000000) translate(-19.433987, -10.076517) "></line>
                    <g id="编组-3" transform="translate(37.863943, 10.718780) rotate(-30.000000) translate(-37.863943, -10.718780) translate(29.749465, 3.026695)" stroke-linecap="round">
                        <line x1="8.39569004" y1="0" x2="0" y2="8.39569004" id="路径-2备份-2"></line>
                        <line x1="16.2289554" y1="14.8841698" x2="4.35565669" y2="14.8841698" id="路径-2备份-3"></line>
                    </g>
                    <g id="编组-3备份" transform="translate(10.470570, 27.561960) scale(-1, 1) rotate(-30.000000) translate(-10.470570, -27.561960) translate(2.808690, 19.891586)" stroke-linecap="round">
                        <line x1="15.3237609" y1="2.87241093" x2="3.80314985" y2="4.54747351e-13" id="路径-2备份-2"></line>
                        <line x1="8.68358097" y1="15.3407492" x2="0" y2="7.24317892" id="路径-2备份-3"></line>
                    </g>
                </g>
            </g>
        </g>
    </g>
</svg>